<svg width="16" height="16" viewBox="0 0 16 16" fill="none" xmlns="http://www.w3.org/2000/svg">
<path fill-rule="evenodd" clip-rule="evenodd" d="M7.99999 0.666748C3.94999 0.666748 0.666656 3.95008 0.666656 8.00008C0.666656 12.0501 3.94999 15.3334 7.99999 15.3334C12.05 15.3334 15.3333 12.0501 15.3333 8.00008C15.3333 3.95008 12.05 0.666748 7.99999 0.666748ZM8.66666 10.6667C8.66666 10.8436 8.59642 11.0131 8.47139 11.1382C8.34637 11.2632 8.1768 11.3334 7.99999 11.3334C7.82318 11.3334 7.65361 11.2632 7.52858 11.1382C7.40356 11.0131 7.33332 10.8436 7.33332 10.6667V8.66675H5.33332C5.15651 8.66675 4.98694 8.59651 4.86192 8.47149C4.73689 8.34646 4.66666 8.17689 4.66666 8.00008C4.66666 7.82327 4.73689 7.6537 4.86192 7.52868C4.98694 7.40365 5.15651 7.33342 5.33332 7.33342H7.33332V5.33342C7.33332 5.1566 7.40356 4.98703 7.52858 4.86201C7.65361 4.73699 7.82318 4.66675 7.99999 4.66675C8.1768 4.66675 8.34637 4.73699 8.47139 4.86201C8.59642 4.98703 8.66666 5.1566 8.66666 5.33342V7.33342H10.6667C10.8435 7.33342 11.013 7.40365 11.1381 7.52868C11.2631 7.6537 11.3333 7.82327 11.3333 8.00008C11.3333 8.17689 11.2631 8.34646 11.1381 8.47149C11.013 8.59651 10.8435 8.66675 10.6667 8.66675H8.66666V10.6667Z" fill="black"/>
</svg>
